<svg width="200" height="200" viewBox="0 0 200 200" xmlns="http://www.w3.org/2000/svg">
  <!-- Professional Grain Elevator Complex Icon -->

  <!-- Ground -->
  <rect x="0" y="185" width="200" height="2" fill="currentColor" opacity="0.2"/>

  <!-- Headhouse/Tower (Top structure) -->
  <g id="headhouse">
    <!-- Main tower building -->
    <rect x="75" y="10" width="50" height="45" fill="currentColor" rx="2"/>
    <!-- Windows -->
    <rect x="82" y="18" width="8" height="10" fill="currentColor" opacity="0.2"/>
    <rect x="92" y="18" width="8" height="10" fill="currentColor" opacity="0.2"/>
    <rect x="110" y="18" width="8" height="10" fill="currentColor" opacity="0.2"/>
    <rect x="82" y="35" width="8" height="10" fill="currentColor" opacity="0.2"/>
    <rect x="92" y="35" width="8" height="10" fill="currentColor" opacity="0.2"/>
    <rect x="110" y="35" width="8" height="10" fill="currentColor" opacity="0.2"/>
    <!-- Flat roof -->
    <rect x="72" y="7" width="56" height="3" fill="currentColor" opacity="0.9"/>
  </g>

  <!-- Conveyor support structure (triangular trusses) -->
  <g id="conveyor-support" opacity="0.85">
    <!-- Left truss -->
    <path d="M 75 55 L 60 75 L 75 75 Z" fill="none" stroke="currentColor" stroke-width="2.5"/>
    <line x1="70" y1="62" x2="65" y2="75" stroke="currentColor" stroke-width="1.5"/>
    <line x1="67.5" y1="65" x2="75" y2="65" stroke="currentColor" stroke-width="1.5"/>

    <!-- Right truss -->
    <path d="M 125 55 L 140 75 L 125 75 Z" fill="none" stroke="currentColor" stroke-width="2.5"/>
    <line x1="130" y1="62" x2="135" y2="75" stroke="currentColor" stroke-width="1.5"/>
    <line x1="132.5" y1="65" x2="125" y2="65" stroke="currentColor" stroke-width="1.5"/>

    <!-- Cross beam -->
    <rect x="60" y="73" width="80" height="4" fill="currentColor" opacity="0.9"/>
  </g>

  <!-- Main Grain Silos (4 large cylinders) -->
  <g id="main-silos">
    <!-- Silo 1 (leftmost) -->
    <rect x="30" y="77" width="32" height="108" fill="currentColor" opacity="0.9" rx="1"/>
    <ellipse cx="46" cy="77" rx="16" ry="6" fill="currentColor"/>
    <!-- Horizontal bands -->
    <line x1="30" y1="100" x2="62" y2="100" stroke="currentColor" stroke-width="1.2" opacity="0.3"/>
    <line x1="30" y1="125" x2="62" y2="125" stroke="currentColor" stroke-width="1.2" opacity="0.3"/>
    <line x1="30" y1="150" x2="62" y2="150" stroke="currentColor" stroke-width="1.2" opacity="0.3"/>

    <!-- Silo 2 -->
    <rect x="60" y="77" width="32" height="108" fill="currentColor" opacity="0.95" rx="1"/>
    <ellipse cx="76" cy="77" rx="16" ry="6" fill="currentColor"/>
    <line x1="60" y1="100" x2="92" y2="100" stroke="currentColor" stroke-width="1.2" opacity="0.3"/>
    <line x1="60" y1="125" x2="92" y2="125" stroke="currentColor" stroke-width="1.2" opacity="0.3"/>
    <line x1="60" y1="150" x2="92" y2="150" stroke="currentColor" stroke-width="1.2" opacity="0.3"/>

    <!-- Silo 3 -->
    <rect x="108" y="77" width="32" height="108" fill="currentColor" opacity="0.95" rx="1"/>
    <ellipse cx="124" cy="77" rx="16" ry="6" fill="currentColor"/>
    <line x1="108" y1="100" x2="140" y2="100" stroke="currentColor" stroke-width="1.2" opacity="0.3"/>
    <line x1="108" y1="125" x2="140" y2="125" stroke="currentColor" stroke-width="1.2" opacity="0.3"/>
    <line x1="108" y1="150" x2="140" y2="150" stroke="currentColor" stroke-width="1.2" opacity="0.3"/>

    <!-- Silo 4 (rightmost) -->
    <rect x="138" y="77" width="32" height="108" fill="currentColor" opacity="0.9" rx="1"/>
    <ellipse cx="154" cy="77" rx="16" ry="6" fill="currentColor"/>
    <line x1="138" y1="100" x2="170" y2="100" stroke="currentColor" stroke-width="1.2" opacity="0.3"/>
    <line x1="138" y1="125" x2="170" y2="125" stroke="currentColor" stroke-width="1.2" opacity="0.3"/>
    <line x1="138" y1="150" x2="170" y2="150" stroke="currentColor" stroke-width="1.2" opacity="0.3"/>
  </g>

  <!-- Conveyor/Auger system (angled tube) -->
  <g id="conveyor" opacity="0.8">
    <!-- Auger tube on left -->
    <rect x="15" y="120" width="8" height="45" fill="currentColor"
          transform="rotate(-65 19 142)" rx="2"/>
    <!-- Support brackets -->
    <rect x="14" y="130" width="3" height="12" fill="currentColor" opacity="0.6"/>
    <rect x="10" y="145" width="3" height="12" fill="currentColor" opacity="0.6"/>
  </g>

  <!-- Scale house/Office building (small building on right) -->
  <g id="office">
    <rect x="160" y="155" width="28" height="30" fill="currentColor" opacity="0.75" rx="1"/>
    <!-- Slanted roof -->
    <path d="M 158 155 L 174 145 L 190 155 Z" fill="currentColor" opacity="0.8"/>
    <!-- Window -->
    <rect x="167" y="163" width="8" height="10" fill="currentColor" opacity="0.2"/>
    <!-- Door -->
    <rect x="170" y="173" width="6" height="12" fill="currentColor" opacity="0.3"/>
  </g>

  <!-- Loading dock/Platform -->
  <g id="loading-dock" opacity="0.7">
    <rect x="25" y="178" width="150" height="7" fill="currentColor"/>
    <!-- Support posts -->
    <rect x="35" y="170" width="3" height="8" fill="currentColor" opacity="0.8"/>
    <rect x="70" y="170" width="3" height="8" fill="currentColor" opacity="0.8"/>
    <rect x="105" y="170" width="3" height="8" fill="currentColor" opacity="0.8"/>
    <rect x="140" y="170" width="3" height="8" fill="currentColor" opacity="0.8"/>
  </g>

  <!-- Ladder on front silo -->
  <g id="ladder" opacity="0.4">
    <rect x="74" y="90" width="2" height="95" fill="currentColor"/>
    <rect x="78" y="90" width="2" height="95" fill="currentColor"/>
    <!-- Rungs -->
    <rect x="74" y="100" width="6" height="1.5" fill="currentColor"/>
    <rect x="74" y="110" width="6" height="1.5" fill="currentColor"/>
    <rect x="74" y="120" width="6" height="1.5" fill="currentColor"/>
    <rect x="74" y="130" width="6" height="1.5" fill="currentColor"/>
    <rect x="74" y="140" width="6" height="1.5" fill="currentColor"/>
    <rect x="74" y="150" width="6" height="1.5" fill="currentColor"/>
    <rect x="74" y="160" width="6" height="1.5" fill="currentColor"/>
    <rect x="74" y="170" width="6" height="1.5" fill="currentColor"/>
  </g>

  <!-- Grain chute/spout detail -->
  <g id="chute" opacity="0.6">
    <rect x="44" y="183" width="4" height="5" fill="currentColor"/>
    <path d="M 44 188 L 42 193 L 50 193 L 48 188 Z" fill="currentColor"/>
  </g>
</svg>
